# xmcd
#
# Track frame offsets:
#	150
#	15506
#	29284
#	45285
#	59990
#	75499
#	90796
#	105874
#	120997
#	133668
#	147074
#	163242
#
# Disc length: 2345 seconds
#
# Revision: 1
# Processed by: cddbd v1.5.2PL0 Copyright (c) Steve Scherf et al.
# Submitted via: audiograbber 1.83.01
#
DISCID=8709270c
DTITLE=Truck Stop - Willkommen in der Familie
DYEAR=1900
DGENRE=
TTITLE0=Das analoge Mädchen
TTITLE1=Sattel nicht gleich die Pferde
TTITLE2=Ich bin dein Mann
TTITLE3=Keine Zeit
TTITLE4=Einfache Cowboys
TTITLE5=Willkommen in der Familie
TTITLE6=dich brauch' ich
TTITLE7=Der Lack ist ab
TTITLE8=Männer
TTITLE9=Ich bin Cowboy
TTITLE10=Spuren deiner Liebe
TTITLE11=Country Music
EXTD=
EXTT0=
EXTT1=
EXTT2=
EXTT3=
EXTT4=
EXTT5=
EXTT6=
EXTT7=
EXTT8=
EXTT9=
EXTT10=
EXTT11=
PLAYORDER=
